<svg xmlns="http://www.w3.org/2000/svg" xmlns:xlink="http://www.w3.org/1999/xlink" width="100" zoomAndPan="magnify" viewBox="0 0 75 74.999997" height="100" preserveAspectRatio="xMidYMid meet" version="1.0"><defs><clipPath id="edf6aa510f"><path d="M 0 7.828125 L 52 7.828125 L 52 67 L 0 67 Z M 0 7.828125 " clip-rule="nonzero"/></clipPath><clipPath id="689c1d97e6"><path d="M 56 61 L 75 61 L 75 67.078125 L 56 67.078125 Z M 56 61 " clip-rule="nonzero"/></clipPath></defs><g clip-path="url(#edf6aa510f)"><path fill="#000000" d="M 0.496094 66.960938 L 51.046875 66.960938 C 51.054688 66.960938 51.0625 66.960938 51.066406 66.960938 C 51.230469 66.960938 51.375 66.886719 51.472656 66.777344 C 51.523438 66.71875 51.585938 66.609375 51.585938 66.421875 L 51.585938 8.347656 C 51.535156 8.1875 51.488281 8.085938 51.441406 7.976562 L 51.4375 7.976562 L 51.40625 7.980469 L 51.40625 7.933594 C 51.347656 7.882812 51.171875 7.828125 51.046875 7.828125 L 0.320312 7.828125 C 0.144531 7.878906 0.0195312 8.054688 0.0195312 8.292969 L 0.0195312 66.484375 C 0.0195312 66.488281 0.0195312 66.492188 0.0195312 66.496094 C 0.0195312 66.65625 0.0859375 66.796875 0.195312 66.898438 C 0.261719 66.960938 0.378906 66.960938 0.496094 66.960938 Z M 5.703125 13.972656 C 5.703125 13.734375 5.828125 13.570312 6.003906 13.507812 L 45.480469 13.507812 C 45.664062 13.558594 45.785156 13.742188 45.785156 13.972656 L 45.785156 60.855469 C 45.785156 61.097656 45.667969 61.273438 45.488281 61.335938 L 6 61.335938 C 5.820312 61.28125 5.699219 61.085938 5.699219 60.859375 L 5.695312 60.855469 Z M 5.703125 13.972656 " fill-opacity="1" fill-rule="nonzero"/></g><g clip-path="url(#689c1d97e6)"><path fill="#000000" d="M 74.980469 61.890625 C 74.980469 61.566406 74.800781 61.375 74.441406 61.375 L 74.441406 61.339844 L 56.964844 61.339844 C 56.671875 61.339844 56.433594 61.519531 56.433594 61.871094 L 56.433594 66.554688 C 56.433594 66.84375 56.613281 67.078125 56.972656 67.078125 L 74.441406 67.078125 C 74.742188 67.078125 74.980469 66.941406 74.980469 66.570312 Z M 74.980469 61.890625 " fill-opacity="1" fill-rule="nonzero"/></g><path fill="#000000" d="M 21.722656 55.488281 C 25.46875 55.488281 28.328125 54.003906 30.292969 51.730469 C 30.433594 51.5 30.480469 51.21875 30.246094 51.03125 L 27.007812 48.203125 C 26.78125 48.054688 26.5 48.054688 26.308594 48.285156 C 25.089844 49.675781 23.824219 50.417969 21.769531 50.417969 C 19.5625 50.417969 17.878906 49.351562 17.175781 47.21875 C 16.75 46.015625 16.65625 44.53125 16.65625 42.636719 C 16.65625 40.734375 16.796875 39.335938 17.21875 38.089844 C 17.96875 36.054688 19.613281 34.976562 21.863281 34.976562 C 23.890625 34.976562 25.027344 35.523438 26.222656 36.890625 C 26.402344 37.121094 26.699219 37.179688 26.941406 36.996094 L 30.167969 34.152344 C 30.402344 34.015625 30.351562 33.644531 30.230469 33.460938 C 28.25 31.101562 25.378906 29.617188 21.675781 29.617188 C 16.707031 29.617188 12.960938 32.074219 11.507812 36.433594 C 10.992188 37.964844 10.757812 39.914062 10.757812 42.546875 C 10.757812 45.191406 10.992188 47.136719 11.554688 48.667969 C 13.007812 53.078125 16.753906 55.488281 21.722656 55.488281 Z M 21.722656 55.488281 " fill-opacity="1" fill-rule="nonzero"/></svg>