<svg xmlns="http://www.w3.org/2000/svg" xmlns:xlink="http://www.w3.org/1999/xlink" width="100" zoomAndPan="magnify" viewBox="0 0 75 74.999997" height="100" preserveAspectRatio="xMidYMid meet" version="1.0"><path fill="#e6dcdc" d="M 37.5 2.484375 L 38.945312 0.460938 C 38.078125 -0.152344 36.921875 -0.152344 36.054688 0.460938 Z M 72.269531 27.316406 L 74.75 27.316406 C 74.75 26.515625 74.363281 25.761719 73.710938 25.296875 Z M 72.269531 47.183594 L 73.710938 49.207031 C 74.363281 48.738281 74.75 47.988281 74.75 47.183594 Z M 37.5 72.019531 L 36.054688 74.039062 C 36.921875 74.65625 38.078125 74.65625 38.945312 74.039062 Z M 2.730469 47.183594 L 0.25 47.183594 C 0.25 47.988281 0.636719 48.738281 1.289062 49.207031 Z M 2.730469 27.316406 L 1.289062 25.296875 C 0.636719 25.761719 0.25 26.515625 0.25 27.316406 Z M 36.054688 4.503906 L 70.824219 29.339844 L 73.710938 25.296875 L 38.945312 0.460938 Z M 69.785156 27.316406 L 69.785156 47.183594 L 74.75 47.183594 L 74.75 27.316406 Z M 70.824219 45.164062 L 36.054688 70 L 38.945312 74.039062 L 73.710938 49.207031 Z M 38.945312 70 L 4.175781 45.164062 L 1.289062 49.207031 L 36.054688 74.039062 Z M 5.214844 47.183594 L 5.214844 27.316406 L 0.25 27.316406 L 0.25 47.183594 Z M 4.175781 29.339844 L 38.945312 4.503906 L 36.054688 0.460938 L 1.289062 25.296875 Z M 4.175781 49.207031 L 38.945312 24.371094 L 36.054688 20.332031 L 1.289062 45.164062 Z M 36.054688 24.371094 L 70.824219 49.207031 L 73.710938 45.164062 L 38.945312 20.332031 Z M 1.289062 29.339844 L 36.054688 54.171875 L 38.945312 50.132812 L 4.175781 25.296875 Z M 38.945312 54.171875 L 73.710938 29.339844 L 70.824219 25.296875 L 36.054688 50.132812 Z M 35.015625 2.484375 L 35.015625 22.351562 L 39.984375 22.351562 L 39.984375 2.484375 Z M 35.015625 52.152344 L 35.015625 72.019531 L 39.984375 72.019531 L 39.984375 52.152344 Z M 35.015625 52.152344 " fill-opacity="1" fill-rule="nonzero"/></svg>