<svg xmlns="http://www.w3.org/2000/svg" xmlns:xlink="http://www.w3.org/1999/xlink" width="100" zoomAndPan="magnify" viewBox="0 0 75 74.999997" height="100" preserveAspectRatio="xMidYMid meet" version="1.0"><defs><clipPath id="88be285368"><path d="M 3.9375 0 L 71.4375 0 L 71.4375 75 L 3.9375 75 Z M 3.9375 0 " clip-rule="nonzero"/></clipPath></defs><g clip-path="url(#88be285368)"><path fill="#0277bd" d="M 71.425781 0 L 3.949219 0 L 9.902344 67.105469 L 37.6875 75 L 65.472656 67.105469 Z M 71.425781 0 " fill-opacity="1" fill-rule="nonzero"/></g><path fill="#039be5" d="M 37.6875 5.921875 L 37.6875 68.882812 L 59.917969 62.566406 L 64.878906 5.921875 Z M 37.6875 5.921875 " fill-opacity="1" fill-rule="nonzero"/><path fill="#ffffff" d="M 55.75 15.789062 L 37.6875 15.789062 L 37.6875 23.683594 L 47.414062 23.683594 L 46.816406 31.578125 L 37.6875 31.578125 L 37.6875 39.472656 L 46.421875 39.472656 L 45.824219 48.355469 L 37.6875 51.117188 L 37.6875 59.40625 L 53.367188 54.277344 L 54.757812 31.578125 Z M 55.75 15.789062 " fill-opacity="1" fill-rule="nonzero"/><path fill="#eeeeee" d="M 37.6875 15.789062 L 37.6875 23.683594 L 20.023438 23.683594 L 19.429688 15.789062 Z M 28.558594 31.578125 L 28.953125 39.472656 L 37.6875 39.472656 L 37.6875 31.578125 Z M 29.351562 43.421875 L 21.414062 43.421875 L 22.007812 54.277344 L 37.6875 59.40625 L 37.6875 51.117188 L 29.550781 48.355469 Z M 29.351562 43.421875 " fill-opacity="1" fill-rule="nonzero"/></svg>