<svg xmlns="http://www.w3.org/2000/svg" xmlns:xlink="http://www.w3.org/1999/xlink" width="100" zoomAndPan="magnify" viewBox="0 0 75 74.999997" height="100" preserveAspectRatio="xMidYMid meet" version="1.0"><defs><clipPath id="59944c0351"><path d="M 60 12.515625 L 75 12.515625 L 75 62.765625 L 60 62.765625 Z M 60 12.515625 " clip-rule="nonzero"/></clipPath><clipPath id="566fa9e664"><path d="M 0 12.515625 L 15 12.515625 L 15 62.765625 L 0 62.765625 Z M 0 12.515625 " clip-rule="nonzero"/></clipPath></defs><g clip-path="url(#59944c0351)"><path fill="#000000" d="M 67.957031 17.410156 C 65.480469 14.242188 63.507812 12.660156 62.203125 12.660156 C 61.824219 12.660156 61.449219 12.84375 61.121094 13.125 C 60.800781 13.402344 60.609375 13.824219 60.609375 14.199219 C 60.609375 14.898438 61.222656 15.785156 62.390625 16.851562 C 68.238281 22.398438 71.183594 29.574219 71.183594 38.433594 C 71.183594 46.398438 68.332031 53.121094 62.667969 58.519531 C 61.265625 59.808594 60.5625 60.703125 60.5625 61.285156 C 60.5625 61.683594 60.746094 62.078125 61.03125 62.375 C 61.3125 62.660156 61.734375 62.765625 62.113281 62.765625 C 63.191406 62.765625 64.777344 61.683594 66.761719 59.417969 C 72.207031 53.308594 74.875 46.410156 74.875 38.628906 L 74.976562 38.714844 C 74.976562 30.46875 72.632812 23.335938 67.957031 17.410156 Z M 67.957031 17.410156 " fill-opacity="1" fill-rule="nonzero"/></g><g clip-path="url(#566fa9e664)"><path fill="#000000" d="M 12.75 62.660156 C 13.144531 62.660156 13.539062 62.457031 13.847656 62.164062 C 14.160156 61.878906 14.347656 61.476562 14.347656 61.082031 C 14.347656 60.394531 13.757812 59.496094 12.570312 58.425781 C 6.730469 52.898438 3.761719 45.707031 3.761719 36.847656 C 3.761719 28.859375 6.667969 22.167969 12.226562 16.738281 C 13.628906 15.367188 14.332031 14.46875 14.332031 13.882812 C 14.332031 13.492188 14.144531 13.199219 13.863281 12.90625 C 13.582031 12.621094 13.160156 12.515625 12.789062 12.515625 C 11.707031 12.515625 10.121094 13.597656 8.136719 15.863281 C 2.691406 21.96875 0.0234375 28.878906 0.0234375 36.652344 C 0.0234375 45.023438 2.316406 52.121094 7.039062 57.9375 C 9.523438 61.074219 11.386719 62.660156 12.75 62.660156 Z M 12.75 62.660156 " fill-opacity="1" fill-rule="nonzero"/></g><path fill="#000000" d="M 57.382812 55.953125 C 57.382812 54.761719 56.386719 53.875 55.296875 53.875 L 20.996094 53.875 C 19.796875 53.875 18.910156 54.761719 18.910156 55.953125 C 18.910156 57.132812 19.902344 58.027344 20.996094 58.027344 L 55.296875 58.027344 C 56.488281 58.027344 57.367188 57.152344 57.382812 55.953125 Z M 57.382812 55.953125 " fill-opacity="1" fill-rule="nonzero"/><path fill="#000000" d="M 28.09375 35.433594 C 27.722656 36.828125 27.441406 38.246094 27.347656 39.6875 C 27.113281 44.242188 29.5 48.410156 33.242188 50.949219 C 34.085938 51.542969 35.582031 52.257812 36.660156 51.886719 C 33.472656 50.195312 32.449219 48.824219 31.929688 46.847656 C 30.789062 42.273438 35.101562 39.347656 36.964844 35.726562 C 37.464844 34.761719 37.832031 33.703125 37.6875 32.601562 C 37.648438 32.285156 37.367188 31.054688 36.964844 30.519531 C 38.777344 30.292969 39.976562 31.523438 40.617188 33.078125 C 41.285156 34.753906 41.707031 36.527344 41.378906 38.34375 C 41.28125 38.949219 40.816406 40.859375 41.707031 40.949219 C 42.921875 41.140625 43.953125 39.507812 43.71875 37.96875 C 43.585938 37.265625 43.445312 36.152344 43.445312 36.152344 C 44.757812 37.734375 45.316406 39.324219 45.503906 41.046875 C 45.863281 44.171875 44.519531 48.273438 41.996094 50.789062 C 43.074219 49.714844 44.414062 48.96875 45.410156 47.808594 C 46.441406 46.640625 47.234375 45.289062 47.84375 43.851562 C 49.246094 40.632812 50.039062 37.039062 49.808594 33.546875 C 49.714844 31.863281 49.476562 30.140625 48.964844 28.464844 C 48.402344 26.597656 47.5625 24.871094 46.203125 23.472656 L 45.078125 22.402344 C 44.753906 22.121094 44.054688 21.703125 43.863281 21.324219 C 44.65625 23.1875 45.453125 25.101562 44.84375 27.105469 C 44.5625 27.996094 43.535156 30.183594 42.226562 29.628906 C 40.960938 29.113281 41.105469 26.5 41.007812 25.425781 C 40.726562 22.816406 40.164062 20.253906 38.761719 18.019531 C 38.015625 16.804688 37.027344 15.730469 35.765625 14.984375 C 34.132812 14.003906 32.449219 13.355469 30.578125 14.054688 C 30.996094 13.914062 32.070312 15.125 32.257812 15.359375 C 32.914062 16.140625 33.429688 17.042969 33.710938 18.003906 C 34.269531 19.957031 33.753906 22.21875 33.054688 24.078125 C 31.652344 27.960938 29.265625 31.449219 28.09375 35.433594 Z M 28.09375 35.433594 " fill-opacity="1" fill-rule="nonzero"/></svg>