<svg xmlns="http://www.w3.org/2000/svg" xmlns:xlink="http://www.w3.org/1999/xlink" width="100" zoomAndPan="magnify" viewBox="0 0 75 74.999997" height="100" preserveAspectRatio="xMidYMid meet" version="1.0"><defs><clipPath id="3cd471fec0"><path d="M 2.878906 0 L 68.878906 0 L 68.878906 75 L 2.878906 75 Z M 2.878906 0 " clip-rule="nonzero"/></clipPath></defs><g clip-path="url(#3cd471fec0)"><path fill="#e44d26" d="M 8.871094 67.335938 L 2.859375 0.214844 L 68.898438 0.214844 L 62.882812 67.324219 L 35.835938 74.789062 Z M 8.871094 67.335938 " fill-opacity="1" fill-rule="nonzero"/></g><path fill="#f16529" d="M 57.730469 63.050781 L 62.875 5.703125 L 35.878906 5.703125 L 35.878906 69.085938 Z M 57.730469 63.050781 " fill-opacity="1" fill-rule="nonzero"/><path fill="#ebebeb" d="M 35.851562 13.933594 L 15.148438 13.933594 L 17.378906 38.828125 L 35.878906 38.828125 L 35.878906 30.597656 L 24.941406 30.597656 L 24.183594 22.167969 L 35.878906 22.167969 L 35.878906 13.933594 Z M 35.878906 51.949219 L 35.84375 51.957031 L 26.636719 49.484375 L 26.050781 42.917969 L 17.75 42.917969 L 18.90625 55.84375 L 35.84375 60.503906 L 35.878906 60.492188 Z M 35.878906 51.949219 " fill-opacity="1" fill-rule="nonzero"/><path fill="#ffffff" d="M 35.851562 38.828125 L 46.03125 38.828125 L 45.097656 49.5 L 35.875 51.980469 L 35.875 60.542969 L 52.824219 55.867188 L 55.09375 30.59375 L 35.878906 30.59375 Z M 56.363281 16.144531 L 56.558594 13.933594 L 35.847656 13.933594 L 35.847656 22.164062 L 55.816406 22.164062 L 55.980469 20.316406 Z M 56.363281 16.144531 " fill-opacity="1" fill-rule="nonzero"/></svg>