<svg xmlns="http://www.w3.org/2000/svg" xmlns:xlink="http://www.w3.org/1999/xlink" width="100" zoomAndPan="magnify" viewBox="0 0 75 74.999997" height="100" preserveAspectRatio="xMidYMid meet" version="1.0"><defs><clipPath id="6b371fd988"><path d="M 0 56 L 50 56 L 50 74.386719 L 0 74.386719 Z M 0 56 " clip-rule="nonzero"/></clipPath><clipPath id="f9748b6b11"><path d="M 0 58 L 56 58 L 56 74.386719 L 0 74.386719 Z M 0 58 " clip-rule="nonzero"/></clipPath></defs><path fill="#0868ac" d="M 16.40625 12.199219 C 12.121094 18.496094 12.65625 26.683594 15.917969 33.367188 L 16.160156 33.84375 L 16.320312 34.144531 C 16.351562 34.203125 16.386719 34.261719 16.417969 34.316406 C 16.476562 34.421875 16.53125 34.523438 16.578125 34.628906 L 16.890625 35.175781 L 17.070312 35.476562 L 17.433594 36.058594 L 17.59375 36.300781 C 17.757812 36.5625 17.941406 36.820312 18.121094 37.078125 C 18.125 37.082031 18.128906 37.089844 18.136719 37.097656 C 18.164062 37.136719 18.195312 37.179688 18.214844 37.21875 C 18.371094 37.4375 18.542969 37.65625 18.703125 37.871094 L 18.882812 38.105469 L 19.324219 38.660156 L 19.492188 38.867188 C 19.695312 39.109375 19.902344 39.351562 20.109375 39.585938 L 20.125 39.601562 C 20.132812 39.609375 20.140625 39.617188 20.148438 39.625 C 20.351562 39.855469 20.558594 40.082031 20.773438 40.300781 L 20.976562 40.507812 L 21.476562 41.011719 L 21.679688 41.210938 C 21.90625 41.425781 22.132812 41.636719 22.363281 41.847656 L 22.496094 41.960938 L 23.117188 42.496094 L 23.375 42.707031 L 23.894531 43.113281 L 24.171875 43.332031 L 24.964844 43.914062 C 24.984375 43.925781 25.003906 43.941406 25.023438 43.957031 C 25.210938 44.085938 25.398438 44.210938 25.585938 44.339844 L 25.832031 44.503906 L 26.71875 45.058594 L 26.964844 45.199219 L 27.628906 45.582031 C 27.75 45.648438 27.875 45.710938 27.996094 45.773438 L 28.472656 46.019531 L 28.582031 46.070312 L 28.773438 46.167969 L 29.53125 46.523438 L 29.6875 46.605469 C 29.980469 46.734375 30.273438 46.859375 30.566406 46.980469 L 30.78125 47.066406 L 31.613281 47.378906 L 31.714844 47.417969 C 32.023438 47.527344 32.332031 47.628906 32.640625 47.726562 L 32.863281 47.796875 C 33.1875 47.894531 33.492188 48.007812 33.816406 48.074219 C 54.539062 51.945312 60.558594 35.351562 60.558594 35.351562 C 55.503906 42.082031 46.53125 43.859375 38.03125 41.882812 C 37.707031 41.800781 37.394531 41.707031 37.082031 41.609375 L 36.84375 41.527344 C 36.539062 41.433594 36.230469 41.332031 35.929688 41.226562 L 35.804688 41.179688 C 35.535156 41.082031 35.265625 40.980469 35 40.875 L 34.773438 40.78125 C 34.480469 40.664062 34.191406 40.542969 33.902344 40.414062 L 33.730469 40.335938 L 32.996094 39.984375 L 32.785156 39.878906 C 32.59375 39.785156 32.40625 39.6875 32.21875 39.585938 L 31.839844 39.382812 C 31.609375 39.253906 31.382812 39.125 31.160156 38.992188 L 30.929688 38.863281 C 30.632812 38.683594 30.335938 38.496094 30.042969 38.308594 C 29.964844 38.253906 29.886719 38.199219 29.804688 38.144531 L 29.175781 37.714844 L 28.972656 37.570312 L 28.375 37.128906 L 28.113281 36.925781 L 27.574219 36.496094 L 27.332031 36.300781 L 26.664062 35.730469 C 26.640625 35.710938 26.617188 35.691406 26.582031 35.667969 C 26.34375 35.453125 26.109375 35.234375 25.878906 35.015625 L 25.175781 34.3125 L 24.976562 34.109375 C 24.765625 33.890625 24.558594 33.664062 24.359375 33.4375 C 24.347656 33.425781 24.335938 33.417969 24.328125 33.40625 C 24.113281 33.164062 23.902344 32.921875 23.699219 32.671875 L 23.53125 32.472656 L 23.078125 31.902344 L 22.914062 31.6875 L 22.390625 30.976562 C 17.667969 24.394531 15.980469 15.316406 19.746094 7.859375 M 29.707031 6.894531 C 26.609375 11.453125 26.777344 17.554688 29.195312 22.375 C 29.597656 23.1875 30.054688 23.964844 30.5625 24.714844 C 31.027344 25.394531 31.542969 26.203125 32.160156 26.75 C 32.382812 26.992188 32.617188 27.238281 32.855469 27.488281 C 32.914062 27.550781 32.976562 27.609375 33.039062 27.671875 C 33.269531 27.902344 33.507812 28.128906 33.75 28.347656 C 33.757812 28.355469 33.765625 28.363281 33.777344 28.371094 C 34.050781 28.617188 34.328125 28.851562 34.613281 29.082031 L 34.800781 29.230469 C 35.085938 29.453125 35.375 29.671875 35.667969 29.878906 C 35.675781 29.886719 35.683594 29.890625 35.695312 29.898438 C 35.824219 29.988281 35.957031 30.078125 36.089844 30.164062 C 36.152344 30.207031 36.210938 30.253906 36.277344 30.292969 C 36.488281 30.429688 36.703125 30.566406 36.917969 30.695312 L 37.011719 30.75 L 37.578125 31.074219 C 37.644531 31.113281 37.710938 31.144531 37.78125 31.183594 L 38.1875 31.390625 C 38.207031 31.402344 38.226562 31.410156 38.246094 31.421875 C 38.519531 31.558594 38.792969 31.6875 39.074219 31.816406 C 39.136719 31.84375 39.199219 31.867188 39.257812 31.890625 C 39.484375 31.988281 39.710938 32.085938 39.941406 32.175781 L 40.230469 32.285156 C 40.4375 32.363281 40.648438 32.433594 40.855469 32.507812 L 41.140625 32.597656 C 41.4375 32.695312 41.730469 32.8125 42.042969 32.867188 C 58.039062 35.574219 61.734375 22.980469 61.734375 22.980469 C 58.402344 27.882812 51.957031 30.222656 45.078125 28.398438 C 44.773438 28.316406 44.46875 28.226562 44.171875 28.128906 C 44.078125 28.101562 43.988281 28.070312 43.898438 28.046875 C 43.683594 27.976562 43.472656 27.902344 43.265625 27.824219 L 42.976562 27.714844 C 42.75 27.632812 42.523438 27.53125 42.296875 27.433594 C 42.234375 27.40625 42.171875 27.382812 42.113281 27.355469 C 41.832031 27.230469 41.550781 27.097656 41.277344 26.957031 C 41.136719 26.886719 40.996094 26.8125 40.859375 26.738281 L 40.617188 26.613281 C 40.4375 26.515625 40.261719 26.414062 40.085938 26.308594 L 39.960938 26.226562 C 39.746094 26.097656 39.53125 25.964844 39.320312 25.824219 C 39.253906 25.785156 39.191406 25.746094 39.128906 25.695312 L 38.710938 25.414062 C 38.417969 25.203125 38.128906 24.988281 37.847656 24.765625 L 37.652344 24.609375 C 34.640625 22.179688 32.253906 18.859375 31.121094 15.089844 C 29.929688 11.183594 30.1875 6.800781 32.253906 3.242188 M 40.890625 2.929688 C 39.0625 5.679688 38.886719 9.09375 40.160156 12.128906 C 41.496094 15.347656 44.234375 17.875 47.433594 19.074219 C 47.5625 19.125 47.695312 19.167969 47.835938 19.214844 L 48.011719 19.273438 C 48.199219 19.332031 48.386719 19.402344 48.582031 19.441406 C 57.414062 21.183594 59.8125 14.804688 60.449219 13.867188 C 58.351562 16.957031 54.824219 17.699219 50.496094 16.625 C 50.15625 16.539062 49.777344 16.414062 49.441406 16.292969 C 49.015625 16.140625 48.601562 15.964844 48.199219 15.765625 C 47.425781 15.386719 46.699219 14.933594 46.019531 14.40625 C 42.136719 11.402344 39.730469 5.671875 42.257812 1.003906 " fill-opacity="1" fill-rule="nonzero"/><path fill="#131b28" d="M 21.382812 61.273438 L 20.785156 63.402344 Z M 24.460938 65.898438 L 23.800781 65.890625 Z M 24.300781 69.078125 L 20.347656 69.089844 Z M 25.125 65.902344 L 24.464844 65.898438 Z M 24.65625 68.804688 L 25.34375 66.171875 Z M 39.195312 56.671875 L 37.914062 62.722656 Z M 35.898438 56.671875 L 34.925781 61.191406 Z M 35.898438 56.671875 " fill-opacity="1" fill-rule="nonzero"/><path fill="#131b28" d="M 38.96875 56.398438 L 36.226562 56.398438 C 36.074219 56.398438 35.925781 56.519531 35.890625 56.667969 L 33.945312 65.710938 C 33.914062 65.859375 33.761719 65.984375 33.609375 65.984375 L 31.667969 65.984375 C 29.75 65.984375 29.972656 64.648438 30.371094 62.824219 L 30.382812 62.769531 L 30.617188 61.523438 L 30.71875 61.011719 L 31.601562 56.667969 C 31.632812 56.519531 31.535156 56.398438 31.382812 56.398438 L 28.566406 56.398438 C 28.386719 56.402344 28.277344 56.492188 28.234375 56.667969 L 26.964844 62.703125 C 26.269531 65.898438 26.453125 68.945312 30.242188 69.039062 L 30.351562 69.042969 L 36.296875 69.042969 C 36.449219 69.042969 36.601562 68.921875 36.632812 68.769531 L 39.199219 56.667969 C 39.230469 56.519531 39.128906 56.398438 38.976562 56.398438 Z M 49.90625 66.015625 C 50.058594 66.015625 50.148438 66.136719 50.128906 66.285156 L 49.863281 67.59375 M 49.597656 68.902344 L 49.863281 67.59375 Z M 49.261719 69.175781 L 44.210938 69.199219 Z M 49.261719 69.175781 " fill-opacity="1" fill-rule="nonzero"/><path fill="#131b28" d="M 42.574219 64.332031 C 42.570312 64.1875 42.734375 63.945312 42.886719 63.945312 L 42.542969 63.9375 C 42.378906 65.496094 42.574219 64.332031 42.574219 64.332031 Z M 44.460938 69.199219 L 44.40625 69.199219 Z M 49.90625 66.015625 C 50.058594 66.015625 50.148438 66.136719 50.128906 66.285156 L 49.816406 67.804688 M 45.757812 69.203125 L 45.746094 69.203125 Z M 45.082031 69.199219 L 45.042969 69.199219 Z M 44.878906 69.199219 L 44.8125 69.199219 Z M 44.679688 69.199219 L 44.621094 69.199219 Z M 45.054688 69.199219 L 44.886719 69.199219 Z M 45.054688 69.199219 " fill-opacity="1" fill-rule="nonzero"/><g clip-path="url(#6b371fd988)"><path fill="#131b28" d="M 45.746094 69.203125 L 45.085938 69.207031 Z M 49.261719 69.183594 L 45.757812 69.203125 Z M 49.589844 68.902344 L 49.8125 67.804688 Z M 44.804688 69.199219 L 44.679688 69.199219 L 44.824219 69.199219 Z M 44.40625 69.199219 L 44.210938 69.199219 Z M 44.613281 69.199219 L 44.449219 69.199219 Z M 4.5 64.367188 L 4.925781 62.46875 L 4.441406 64.636719 L 4.382812 64.90625 L 4.5 64.363281 Z M 9.597656 56.367188 L 6.585938 56.367188 C 6.410156 56.375 6.296875 56.464844 6.25 56.636719 L 5.679688 59.160156 C 5.65625 59.230469 5.671875 59.296875 5.714844 59.351562 C 5.761719 59.410156 5.820312 59.4375 5.894531 59.433594 L 8.929688 59.433594 C 9.082031 59.433594 9.230469 59.308594 9.265625 59.160156 L 9.816406 56.632812 C 9.847656 56.484375 9.75 56.359375 9.597656 56.359375 Z M 8.945312 60.574219 L 8.050781 64.675781 Z M 0.195312 74.164062 L 2.679688 74.183594 C 1.945312 74.183594 0.734375 74.171875 0.195312 74.164062 Z M 0.195312 74.164062 " fill-opacity="1" fill-rule="nonzero"/></g><g clip-path="url(#f9748b6b11)"><path fill="#131b28" d="M 5.34375 60.574219 L 4.917969 62.46875 Z M 8.726562 60.304688 L 5.691406 60.304688 C 5.511719 60.308594 5.398438 60.398438 5.351562 60.574219 L 4.5 64.363281 L 4.382812 64.910156 L 3.570312 68.777344 C 3.53125 68.957031 3.484375 69.136719 3.425781 69.3125 C 3.425781 69.3125 2.859375 71.007812 1.90625 70.988281 L 0.960938 70.96875 C 0.78125 70.972656 0.667969 71.0625 0.621094 71.234375 L -0.0078125 73.890625 C -0.03125 73.960938 -0.0195312 74.023438 0.0273438 74.082031 C 0.0703125 74.140625 0.128906 74.167969 0.203125 74.164062 L 2.6875 74.183594 C 5.070312 74.183594 6.324219 72.859375 7.128906 69.050781 L 8.953125 60.582031 C 8.984375 60.433594 8.886719 60.3125 8.734375 60.3125 Z M 51.839844 69.042969 C 51.6875 69.042969 51.597656 68.921875 51.621094 68.773438 L 53.90625 58.039062 M 55.011719 68.773438 L 55.9375 64.191406 Z M 55.011719 68.773438 " fill-opacity="1" fill-rule="nonzero"/></g><path fill="#131b28" d="M 51.65625 68.910156 C 51.636719 68.832031 51.648438 68.652344 51.679688 68.5 L 52.761719 63.40625 L 51.621094 68.773438 C 51.589844 68.921875 51.6875 69.042969 51.839844 69.042969 L 52.117188 69.042969 C 51.964844 69.042969 51.671875 68.984375 51.65625 68.910156 Z M 54.835938 68.984375 C 54.75 69.015625 54.558594 69.042969 54.40625 69.042969 L 54.683594 69.042969 C 54.863281 69.039062 54.972656 68.945312 55.015625 68.773438 L 55.070312 68.5 C 55.042969 68.648438 54.910156 68.949219 54.828125 68.984375 Z M 55.476562 66.480469 L 55.882812 64.457031 Z M 64.484375 58.757812 L 64.609375 59.277344 C 64.644531 59.425781 64.546875 59.546875 64.394531 59.550781 " fill-opacity="1" fill-rule="nonzero"/><path fill="#131b28" d="M 55.070312 68.5 L 55.472656 66.480469 Z M 64.359375 58.214844 L 64.484375 58.746094 Z M 55.882812 64.457031 L 55.996094 63.917969 L 56.429688 61.871094 L 55.9375 64.1875 Z M 53.941406 57.859375 L 53.847656 58.308594 L 52.765625 63.40625 L 53.90625 58.039062 L 53.941406 57.863281 Z M 53.941406 57.859375 " fill-opacity="1" fill-rule="nonzero"/><path fill="#131b28" d="M 64.609375 59.277344 L 64.484375 58.757812 L 64.296875 57.941406 C 64.050781 56.980469 63.328125 56.425781 61.757812 56.425781 L 54.523438 56.421875 C 54.34375 56.425781 54.230469 56.519531 54.1875 56.691406 L 54.074219 57.226562 L 53.914062 58.027344 L 51.6875 68.492188 C 51.65625 68.640625 51.644531 68.816406 51.664062 68.898438 C 51.683594 68.980469 51.976562 69.035156 52.125 69.035156 L 54.414062 69.035156 C 54.566406 69.035156 54.757812 69.007812 54.839844 68.972656 C 54.925781 68.941406 55.046875 68.648438 55.085938 68.492188 L 55.953125 64.179688 L 56.882812 59.8125 C 56.914062 59.664062 57.0625 59.542969 57.214844 59.542969 L 64.410156 59.539062 C 64.5625 59.539062 64.660156 59.417969 64.625 59.269531 Z M 73.875 54.5625 L 71.015625 54.5625 C 70.839844 54.574219 70.695312 54.652344 70.585938 54.792969 L 65.492188 62.285156 C 65.40625 62.410156 65.308594 62.390625 65.273438 62.242188 L 64.898438 60.59375 C 64.851562 60.417969 64.738281 60.328125 64.558594 60.320312 L 61.285156 60.320312 C 61.132812 60.320312 61.042969 60.441406 61.082031 60.589844 L 62.542969 65.75 C 62.585938 65.894531 62.589844 66.136719 62.550781 66.285156 L 61.902344 68.78125 C 61.878906 68.851562 61.890625 68.914062 61.933594 68.972656 C 61.980469 69.03125 62.039062 69.058594 62.113281 69.050781 L 65.355469 69.050781 C 65.507812 69.050781 65.664062 68.929688 65.699219 68.785156 L 66.351562 66.285156 C 66.402344 66.109375 66.480469 65.945312 66.585938 65.792969 L 74.863281 54.777344 C 74.953125 54.65625 74.902344 54.554688 74.75 54.558594 L 73.882812 54.5625 Z M 47.859375 61.023438 C 47.839844 61.1875 47.6875 61.308594 47.535156 61.308594 L 43.382812 61.308594 C 43.238281 61.308594 43.167969 61.210938 43.1875 61.089844 L 43.191406 61.066406 L 43.210938 60.996094 C 43.617188 59.9375 44.414062 59.242188 45.933594 59.242188 C 47.640625 59.242188 47.976562 60.082031 47.859375 61.023438 Z M 46.640625 56.214844 C 41.3125 56.214844 40.050781 59.460938 39.34375 62.738281 C 38.632812 66.078125 38.695312 69.199219 44.210938 69.199219 L 45.757812 69.199219 L 49.265625 69.175781 C 49.441406 69.167969 49.554688 69.078125 49.59375 68.90625 L 50.128906 66.289062 C 50.160156 66.140625 50.058594 66.019531 49.90625 66.019531 L 44.949219 66.019531 C 42.980469 66.019531 42.394531 65.492188 42.609375 63.945312 L 50.53125 63.945312 C 50.660156 63.945312 50.777344 63.863281 50.824219 63.742188 C 50.832031 63.71875 50.839844 63.695312 50.84375 63.671875 C 52.019531 59.21875 51.683594 56.214844 46.644531 56.214844 Z M 21.457031 61.003906 L 21.382812 61.273438 C 21.382812 61.273438 20.785156 63.402344 20.785156 63.402344 L 20.1875 65.53125 C 20.128906 65.699219 20.011719 65.789062 19.832031 65.796875 L 16.667969 65.796875 C 14.265625 65.796875 13.679688 63.910156 14.265625 61.128906 C 14.847656 58.28125 15.996094 56.515625 18.359375 56.335938 C 21.589844 56.089844 22.234375 58.371094 21.457031 61.003906 Z M 23.628906 65.632812 C 23.628906 65.632812 25.121094 61.996094 25.460938 59.890625 C 25.925781 57.078125 24.519531 52.996094 19.101562 52.996094 C 13.710938 52.996094 11.367188 56.890625 10.476562 61.136719 C 9.582031 65.402344 10.753906 69.144531 16.113281 69.117188 L 24.292969 69.085938 C 24.46875 69.078125 24.585938 68.988281 24.636719 68.816406 L 25.328125 66.179688 C 25.351562 66.109375 25.339844 66.046875 25.296875 65.988281 C 25.253906 65.929688 25.195312 65.902344 25.121094 65.910156 L 23.800781 65.902344 C 23.671875 65.898438 23.597656 65.816406 23.613281 65.707031 C 23.617188 65.683594 23.621094 65.664062 23.628906 65.644531 Z M 23.628906 65.632812 " fill-opacity="1" fill-rule="nonzero"/><path fill="#131b28" d="M 50.316406 63.199219 C 50.316406 63.300781 50.234375 63.382812 50.132812 63.382812 C 50.03125 63.382812 49.953125 63.300781 49.953125 63.199219 C 49.953125 63.097656 50.03125 63.015625 50.132812 63.015625 C 50.234375 63.015625 50.316406 63.097656 50.316406 63.199219 Z M 50.316406 63.199219 " fill-opacity="1" fill-rule="nonzero"/></svg>