<svg xmlns="http://www.w3.org/2000/svg" xmlns:xlink="http://www.w3.org/1999/xlink" width="100" zoomAndPan="magnify" viewBox="0 0 75 74.999997" height="100" preserveAspectRatio="xMidYMid meet" version="1.0"><path fill="#599636" d="M 37.417969 0.203125 L 39.421875 3.964844 C 39.875 4.65625 40.363281 5.269531 40.9375 5.84375 C 42.617188 7.519531 44.210938 9.273438 45.644531 11.152344 C 49.042969 15.605469 51.332031 20.550781 52.96875 25.902344 C 53.953125 29.167969 54.484375 32.519531 54.523438 35.910156 C 54.6875 46.039062 51.210938 54.742188 44.191406 61.972656 C 43.046875 63.113281 41.820312 64.175781 40.503906 65.117188 C 39.808594 65.117188 39.480469 64.585938 39.195312 64.09375 C 38.660156 63.195312 38.335938 62.171875 38.171875 61.152344 C 37.925781 59.925781 37.761719 58.703125 37.839844 57.4375 L 37.839844 56.863281 C 37.785156 56.742188 37.171875 0.492188 37.417969 0.203125 Z M 37.417969 0.203125 " fill-opacity="1" fill-rule="nonzero"/><path fill="#6cac48" d="M 37.417969 0.078125 C 37.335938 -0.0859375 37.253906 0.0390625 37.171875 0.121094 C 37.210938 0.941406 36.921875 1.671875 36.476562 2.371094 C 35.980469 3.0625 35.328125 3.59375 34.671875 4.167969 C 31.035156 7.3125 28.167969 11.113281 25.875 15.359375 C 22.820312 21.078125 21.246094 27.207031 20.800781 33.660156 C 20.597656 35.988281 21.539062 44.199219 22.273438 46.570312 C 24.28125 52.859375 27.882812 58.132812 32.546875 62.707031 C 33.695312 63.808594 34.921875 64.832031 36.1875 65.8125 C 36.558594 65.8125 36.597656 65.484375 36.679688 65.242188 C 36.84375 64.71875 36.964844 64.1875 37.050781 63.648438 L 37.871094 57.519531 Z M 37.417969 0.078125 " fill-opacity="1" fill-rule="nonzero"/><path fill="#c2bfbf" d="M 39.421875 67.605469 C 39.503906 66.667969 39.957031 65.890625 40.445312 65.113281 C 39.953125 64.910156 39.585938 64.503906 39.300781 64.050781 C 39.054688 63.644531 38.847656 63.15625 38.691406 62.703125 C 38.117188 60.988281 37.996094 59.1875 37.828125 57.4375 L 37.828125 56.375 C 37.625 56.539062 37.582031 57.925781 37.582031 58.132812 C 37.464844 59.988281 37.21875 61.824219 36.847656 63.648438 C 36.722656 64.382812 36.640625 65.117188 36.1875 65.769531 C 36.1875 65.851562 36.1875 65.933594 36.226562 66.054688 C 36.964844 68.222656 37.167969 70.425781 37.292969 72.675781 L 37.292969 73.496094 C 37.292969 74.476562 37.253906 74.269531 38.066406 74.597656 C 38.394531 74.71875 38.761719 74.761719 39.089844 75.003906 C 39.335938 75.003906 39.378906 74.800781 39.378906 74.636719 L 39.253906 73.289062 L 39.253906 69.53125 C 39.214844 68.875 39.335938 68.222656 39.417969 67.609375 Z M 39.421875 67.605469 " fill-opacity="1" fill-rule="nonzero"/></svg>