<svg xmlns="http://www.w3.org/2000/svg" xmlns:xlink="http://www.w3.org/1999/xlink" width="100" zoomAndPan="magnify" viewBox="0 0 75 74.999997" height="100" preserveAspectRatio="xMidYMid meet" version="1.0"><defs><clipPath id="8edc4efdda"><path d="M 3.476562 0 L 71.726562 0 L 71.726562 75 L 3.476562 75 Z M 3.476562 0 " clip-rule="nonzero"/></clipPath></defs><g clip-path="url(#8edc4efdda)"><path fill="#8cc84b" d="M 34.453125 0.996094 C 36.328125 -0.0625 38.71875 -0.0664062 40.546875 0.996094 L 68.539062 16.730469 C 70.289062 17.710938 71.460938 19.65625 71.445312 21.667969 L 71.445312 53.210938 C 71.457031 55.304688 70.171875 57.292969 68.324219 58.257812 L 40.480469 73.914062 C 40.003906 74.179688 39.5 74.375 38.972656 74.5 C 38.445312 74.628906 37.910156 74.6875 37.363281 74.671875 C 36.820312 74.65625 36.289062 74.570312 35.769531 74.414062 C 35.246094 74.257812 34.757812 74.035156 34.296875 73.746094 L 25.941406 68.933594 C 25.371094 68.59375 24.730469 68.324219 24.328125 67.777344 C 24.683594 67.300781 25.316406 67.238281 25.832031 67.027344 C 26.996094 66.660156 28.058594 66.09375 29.128906 65.496094 C 29.398438 65.308594 29.726562 65.378906 29.984375 65.546875 L 37.109375 69.652344 C 37.617188 69.945312 38.132812 69.5625 38.570312 69.316406 L 65.910156 53.933594 C 66.246094 53.769531 66.433594 53.414062 66.40625 53.046875 L 66.40625 21.808594 C 66.445312 21.386719 66.203125 21.003906 65.820312 20.835938 L 38.046875 5.242188 C 37.882812 5.128906 37.703125 5.074219 37.503906 5.074219 C 37.304688 5.074219 37.121094 5.128906 36.957031 5.242188 L 9.226562 20.863281 C 8.851562 21.035156 8.59375 21.414062 8.640625 21.835938 L 8.640625 53.074219 C 8.605469 53.441406 8.804688 53.789062 9.144531 53.949219 L 16.554688 58.121094 C 17.945312 58.867188 19.652344 59.289062 21.1875 58.738281 C 21.523438 58.613281 21.832031 58.4375 22.113281 58.21875 C 22.394531 58 22.636719 57.742188 22.84375 57.449219 C 23.046875 57.152344 23.199219 56.835938 23.304688 56.496094 C 23.410156 56.152344 23.464844 55.804688 23.460938 55.445312 L 23.46875 24.394531 C 23.4375 23.933594 23.871094 23.554688 24.320312 23.601562 L 27.882812 23.601562 C 28.351562 23.589844 28.71875 24.085938 28.65625 24.546875 L 28.648438 55.792969 C 28.652344 58.570312 27.507812 61.589844 24.933594 62.949219 C 21.757812 64.585938 17.835938 64.242188 14.699219 62.671875 L 6.730469 58.277344 C 4.855469 57.34375 3.597656 55.324219 3.609375 53.230469 L 3.609375 21.6875 C 3.613281 21.175781 3.683594 20.671875 3.824219 20.179688 C 3.960938 19.6875 4.164062 19.21875 4.429688 18.78125 C 4.691406 18.339844 5.011719 17.941406 5.378906 17.585938 C 5.75 17.234375 6.164062 16.933594 6.613281 16.6875 Z M 42.523438 22.863281 C 46.570312 22.628906 50.90625 22.707031 54.546875 24.695312 C 57.367188 26.21875 58.929688 29.414062 58.980469 32.542969 C 58.902344 32.960938 58.460938 33.195312 58.058594 33.164062 C 56.886719 33.164062 55.710938 33.183594 54.53125 33.160156 C 54.035156 33.175781 53.746094 32.71875 53.683594 32.28125 C 53.34375 30.785156 52.527344 29.304688 51.117188 28.585938 C 48.949219 27.503906 46.4375 27.554688 44.074219 27.578125 C 42.351562 27.671875 40.496094 27.820312 39.035156 28.828125 C 37.910156 29.597656 37.574219 31.164062 37.976562 32.386719 C 38.351562 33.28125 39.386719 33.566406 40.234375 33.835938 C 45.113281 35.105469 50.28125 35.003906 55.070312 36.652344 C 57.050781 37.335938 58.988281 38.664062 59.667969 40.730469 C 60.554688 43.503906 60.167969 46.816406 58.191406 49.039062 C 56.589844 50.871094 54.253906 51.84375 51.921875 52.410156 C 48.820312 53.097656 45.605469 53.113281 42.457031 52.804688 C 39.5 52.46875 36.417969 51.695312 34.132812 49.683594 C 32.179688 47.992188 31.226562 45.359375 31.320312 42.816406 C 31.34375 42.386719 31.773438 42.085938 32.1875 42.121094 L 35.703125 42.121094 C 36.175781 42.089844 36.523438 42.496094 36.546875 42.9375 C 36.765625 44.339844 37.300781 45.859375 38.550781 46.675781 C 40.953125 48.222656 43.96875 48.117188 46.722656 48.160156 C 49.003906 48.0625 51.5625 48.03125 53.425781 46.527344 C 54.410156 45.667969 54.695312 44.234375 54.433594 43.003906 C 54.144531 41.960938 53.027344 41.476562 52.089844 41.132812 C 47.273438 39.613281 42.046875 40.164062 37.277344 38.445312 C 35.339844 37.765625 33.46875 36.472656 32.726562 34.492188 C 31.6875 31.6875 32.164062 28.210938 34.347656 26.0625 C 36.457031 23.925781 39.550781 23.101562 42.480469 22.804688 Z M 42.523438 22.863281 " fill-opacity="1" fill-rule="nonzero"/></g></svg>