<svg xmlns="http://www.w3.org/2000/svg" xmlns:xlink="http://www.w3.org/1999/xlink" width="150" zoomAndPan="magnify" viewBox="0 0 112.5 112.499997" height="150" preserveAspectRatio="xMidYMid meet" version="1.0"><path fill="#f06292" d="M 96.316406 63.164062 C 92.410156 63.183594 89.027344 64.128906 86.195312 65.535156 C 85.160156 63.453125 84.109375 61.621094 83.933594 60.257812 C 83.726562 58.671875 83.488281 57.71875 83.738281 55.824219 C 83.984375 53.933594 85.074219 51.25 85.058594 51.046875 C 85.042969 50.84375 84.816406 49.882812 82.5625 49.863281 C 80.3125 49.847656 78.382812 50.300781 78.15625 50.898438 C 77.929688 51.496094 77.496094 52.84375 77.226562 54.25 C 76.835938 56.304688 72.730469 63.636719 70.402344 67.46875 C 69.640625 65.972656 68.992188 64.652344 68.859375 63.609375 C 68.652344 62.019531 68.414062 61.070312 68.664062 59.175781 C 68.910156 57.28125 70 54.597656 69.984375 54.398438 C 69.96875 54.195312 69.742188 53.230469 67.488281 53.214844 C 65.238281 53.199219 63.308594 53.652344 63.082031 54.25 C 62.855469 54.847656 62.613281 56.246094 62.152344 57.597656 C 61.691406 58.949219 56.238281 71.179688 54.808594 74.351562 C 54.082031 75.964844 53.449219 77.261719 53 78.148438 C 53 78.144531 53 78.140625 53 78.140625 C 53 78.140625 52.972656 78.199219 52.925781 78.300781 C 52.542969 79.054688 52.316406 79.472656 52.316406 79.472656 C 52.316406 79.472656 52.316406 79.476562 52.324219 79.488281 C 52.019531 80.039062 51.691406 80.554688 51.535156 80.554688 C 51.421875 80.554688 51.195312 79.082031 51.582031 77.054688 C 52.394531 72.8125 54.34375 66.199219 54.324219 65.972656 C 54.3125 65.851562 54.6875 64.699219 53.050781 64.097656 C 51.460938 63.511719 50.894531 64.488281 50.75 64.492188 C 50.613281 64.492188 50.507812 64.835938 50.507812 64.835938 C 50.507812 64.835938 52.277344 57.398438 47.128906 57.398438 C 43.910156 57.398438 39.449219 60.941406 37.253906 64.152344 C 35.867188 64.914062 32.898438 66.546875 29.753906 68.285156 C 28.542969 68.957031 27.308594 69.636719 26.136719 70.285156 C 26.058594 70.199219 25.976562 70.109375 25.898438 70.019531 C 19.652344 63.316406 8.113281 58.578125 8.601562 49.566406 C 8.777344 46.289062 9.910156 37.660156 30.777344 27.199219 C 47.871094 18.628906 61.558594 20.988281 63.921875 26.214844 C 67.296875 33.683594 56.605469 47.5625 38.855469 49.566406 C 32.09375 50.328125 28.53125 47.6875 27.644531 46.707031 C 26.710938 45.671875 26.574219 45.628906 26.226562 45.820312 C 25.660156 46.136719 26.015625 47.050781 26.226562 47.59375 C 26.753906 48.980469 28.929688 51.441406 32.636719 52.667969 C 35.898438 53.75 43.839844 54.339844 53.441406 50.601562 C 64.199219 46.414062 72.597656 34.765625 70.128906 25.03125 C 67.621094 15.132812 51.308594 11.878906 35.867188 17.398438 C 26.667969 20.683594 16.71875 25.839844 9.566406 32.570312 C 1.0625 40.574219 -0.296875 47.542969 0.261719 50.453125 C 2.25 60.796875 16.417969 67.535156 22.089844 72.527344 C 21.8125 72.679688 21.546875 72.828125 21.308594 72.960938 C 18.464844 74.375 7.664062 80.0625 4.960938 86.070312 C 1.894531 92.886719 5.449219 97.777344 7.800781 98.4375 C 15.085938 100.476562 22.5625 96.808594 26.582031 90.777344 C 30.601562 84.75 30.109375 76.894531 28.265625 73.3125 C 28.242188 73.269531 28.21875 73.226562 28.195312 73.179688 C 28.929688 72.742188 29.679688 72.296875 30.421875 71.859375 C 31.867188 71.003906 33.289062 70.207031 34.519531 69.53125 C 33.832031 71.433594 33.324219 73.714844 33.0625 77.007812 C 32.753906 80.875 34.332031 85.878906 36.394531 87.84375 C 37.300781 88.710938 38.394531 88.730469 39.085938 88.730469 C 41.484375 88.730469 42.578125 86.722656 43.785156 84.347656 C 45.261719 81.433594 46.578125 78.039062 46.578125 78.039062 C 46.578125 78.039062 44.929688 87.203125 49.414062 87.203125 C 51.050781 87.203125 52.695312 85.070312 53.429688 83.984375 C 53.429688 83.996094 53.429688 84 53.429688 84 C 53.429688 84 53.472656 83.929688 53.558594 83.789062 C 53.726562 83.527344 53.824219 83.363281 53.824219 83.363281 C 53.824219 83.363281 53.828125 83.34375 53.832031 83.316406 C 54.488281 82.167969 55.945312 79.550781 58.132812 75.234375 C 60.953125 69.660156 63.660156 62.671875 63.660156 62.671875 C 63.660156 62.671875 63.914062 64.378906 64.738281 67.207031 C 65.222656 68.867188 66.253906 70.703125 67.070312 72.464844 C 66.414062 73.382812 66.011719 73.90625 66.011719 73.90625 C 66.011719 73.90625 66.015625 73.914062 66.023438 73.933594 C 65.5 74.632812 64.914062 75.386719 64.300781 76.125 C 62.070312 78.792969 59.414062 81.84375 59.058594 82.722656 C 58.640625 83.761719 58.742188 84.523438 59.550781 85.140625 C 60.140625 85.585938 61.195312 85.65625 62.292969 85.582031 C 64.296875 85.449219 65.703125 84.949219 66.398438 84.644531 C 67.484375 84.257812 68.746094 83.652344 69.929688 82.773438 C 72.117188 81.15625 73.433594 78.84375 73.308594 75.777344 C 73.234375 74.089844 72.703125 72.414062 72.023438 70.835938 C 72.222656 70.550781 72.421875 70.257812 72.621094 69.96875 C 76.066406 64.898438 78.742188 59.328125 78.742188 59.328125 C 78.742188 59.328125 78.992188 61.035156 79.816406 63.859375 C 80.234375 65.289062 81.058594 66.851562 81.800781 68.378906 C 78.5625 71.027344 76.550781 74.105469 75.855469 76.125 C 74.5625 79.863281 75.574219 81.554688 77.46875 81.941406 C 78.328125 82.113281 79.542969 81.71875 80.453125 81.328125 C 81.589844 80.949219 82.953125 80.320312 84.226562 79.375 C 86.414062 77.757812 88.515625 75.496094 88.390625 72.429688 C 88.332031 71.035156 87.953125 69.652344 87.445312 68.320312 C 90.191406 67.167969 93.746094 66.53125 98.277344 67.0625 C 107.996094 68.203125 109.902344 74.308594 109.539062 76.863281 C 109.171875 79.421875 107.136719 80.824219 106.453125 81.25 C 105.773438 81.675781 105.5625 81.820312 105.621094 82.136719 C 105.703125 82.59375 106.019531 82.578125 106.601562 82.480469 C 107.398438 82.34375 111.703125 80.402344 111.886719 75.683594 C 112.117188 69.6875 106.417969 63.109375 96.316406 63.164062 Z M 21.410156 88.574219 C 18.191406 92.109375 13.695312 93.445312 11.765625 92.320312 C 9.683594 91.105469 10.507812 85.902344 14.457031 82.152344 C 16.863281 79.867188 19.972656 77.761719 22.035156 76.464844 C 22.503906 76.183594 23.191406 75.765625 24.03125 75.261719 C 24.171875 75.179688 24.25 75.136719 24.25 75.136719 L 24.246094 75.132812 C 24.410156 75.035156 24.574219 74.933594 24.742188 74.832031 C 26.183594 80.167969 24.789062 84.867188 21.410156 88.574219 Z M 44.863281 72.535156 C 43.742188 75.285156 41.394531 82.324219 39.964844 81.945312 C 38.738281 81.621094 37.992188 76.273438 39.722656 71.007812 C 40.589844 68.359375 42.449219 65.191406 43.542969 63.960938 C 45.300781 61.984375 47.234375 61.335938 47.703125 62.140625 C 48.300781 63.164062 45.566406 70.8125 44.863281 72.535156 Z M 64.234375 81.835938 C 63.761719 82.089844 63.324219 82.242188 63.125 82.125 C 62.972656 82.035156 63.320312 81.703125 63.320312 81.703125 C 63.320312 81.703125 65.742188 79.082031 66.695312 77.886719 C 67.253906 77.191406 67.894531 76.367188 68.597656 75.445312 C 68.601562 75.539062 68.605469 75.628906 68.605469 75.71875 C 68.597656 78.863281 65.582031 80.984375 64.234375 81.835938 Z M 79.160156 78.414062 C 78.804688 78.160156 78.867188 77.339844 80.03125 74.78125 C 80.488281 73.777344 81.535156 72.089844 83.347656 70.472656 C 83.558594 71.136719 83.6875 71.773438 83.683594 72.367188 C 83.660156 76.324219 80.855469 77.800781 79.160156 78.414062 Z M 79.160156 78.414062 " fill-opacity="1" fill-rule="nonzero"/></svg>